<svg xmlns="http://www.w3.org/2000/svg" aria-hidden="true" style="position:absolute;width:0;height:0;overflow:hidden">
  <defs>
    <symbol id="icon-close" viewBox="0 0 32 32">
      <path fill="#fff" d="m8.534 25.333-1.867-1.867 7.467-7.467-7.467-7.467 1.867-1.867 7.467 7.467 7.467-7.467 1.867 1.867-7.467 7.467 7.467 7.467-1.867 1.867-7.467-7.467-7.467 7.467z" style="fill:var(--color1, #fff)"/>
    </symbol>
    <symbol id="icon-left-arrow" viewBox="0 0 32 32">
      <path fill="#fff" d="M28 16a2 2 0 0 0-2-2H10.16l5.253-5.253a1.998 1.998 0 0 0-.049-2.778 2 2 0 0 0-2.778-.049l-8.667 8.667a1.997 1.997 0 0 0 0 2.826l8.667 8.667a2.003 2.003 0 0 0 2.877.051 1.99 1.99 0 0 0 .585-1.449 1.999 1.999 0 0 0-.636-1.428l-5.253-5.253h15.84a2 2 0 0 0 2-2z" opacity=".6" style="fill:var(--color1, #fff)"/>
    </symbol>
    <symbol id="icon-link-arrow" viewBox="0 0 32 32">
      <path fill="#0f0" d="m8 32 16-16L8 0z" style="fill:var(--color2, #0f0)"/>
    </symbol>
    <symbol id="icon-menu" viewBox="0 0 32 32">
      <path fill="#fff" d="M4.885 25.143c-.305 0-.56-.117-.766-.35s-.309-.523-.309-.867c0-.345.103-.634.309-.867s.462-.349.766-.349h22.23c.305 0 .56.117.766.35s.309.523.309.867c0 .345-.103.634-.309.867s-.462.349-.766.349H4.885zm0-7.926c-.305 0-.56-.117-.766-.35S3.81 16.344 3.81 16c0-.345.103-.634.309-.867s.462-.35.766-.35h22.23c.305 0 .56.117.766.35s.309.523.309.867c0 .345-.103.634-.309.867s-.462.349-.766.349H4.885zm0-7.926c-.305 0-.56-.117-.766-.35s-.309-.522-.309-.867.103-.634.309-.867.462-.35.766-.35h22.23c.305 0 .56.117.766.35s.309.522.309.867-.103.634-.309.867-.462.35-.766.35H4.885z" style="fill:var(--color1, #fff)"/>
    </symbol>
    <symbol id="icon-minus" viewBox="0 0 32 32">
      <path fill="#fff" d="M23.276 17.085H8.417c-.681 0-1.238-.557-1.238-1.238s.557-1.238 1.238-1.238h14.859c.681 0 1.238.557 1.238 1.238s-.557 1.238-1.238 1.238z" style="fill:var(--color1, #fff)"/>
    </symbol>
    <symbol id="icon-plus" viewBox="0 0 32 32">
      <path fill="#fff" d="M23.582 17.085h-6.191v6.191c0 .681-.557 1.238-1.238 1.238s-1.238-.557-1.238-1.238v-6.191H8.724c-.681 0-1.238-.557-1.238-1.238s.557-1.238 1.238-1.238h6.191V8.418c0-.681.557-1.238 1.238-1.238s1.238.557 1.238 1.238v6.191h6.191c.681 0 1.238.557 1.238 1.238s-.557 1.238-1.238 1.238z" style="fill:var(--color1, #fff)"/>
    </symbol>
    <symbol id="icon-right-arrow" viewBox="0 0 32 32">
      <path fill="#fff" d="M4 16a2 2 0 0 0 2 2h15.84l-5.253 5.253a1.998 1.998 0 0 0 .049 2.778 2 2 0 0 0 2.778.049l8.667-8.667a1.997 1.997 0 0 0 0-2.826L19.414 5.92a1.988 1.988 0 0 0-1.428-.636 2.002 2.002 0 0 0-1.889 1.25 1.988 1.988 0 0 0 .028 1.563c.109.245.267.466.463.649l5.253 5.253H6.001a2 2 0 0 0-2 2z" style="fill:var(--color1, #fff)"/>
    </symbol>
  </defs>
</svg>
